<?xml version="1.0" encoding="UTF-8"?>
<svg xmlns="http://www.w3.org/2000/svg" xmlns:xlink="http://www.w3.org/1999/xlink" width="112.5pt" height="112.499997pt" viewBox="0 0 112.5 112.499997" version="1.2">
<defs>
<clipPath id="clip1">
  <path d="M 8 16 L 105.320312 16 L 105.320312 96.917969 L 8 96.917969 Z M 8 16 "/>
</clipPath>
</defs>
<g id="surface1">
<g clip-path="url(#clip1)" clip-rule="nonzero">
<path style=" stroke:none;fill-rule:nonzero;fill:rgb(100%,100%,100%);fill-opacity:1;" d="M 105.246094 54.839844 C 105.246094 56.71875 103.726562 58.246094 101.851562 58.246094 L 77.144531 58.246094 C 75.265625 58.246094 73.746094 56.71875 73.746094 54.839844 L 73.746094 21.597656 C 73.746094 19.714844 75.265625 18.1875 77.144531 18.1875 L 101.851562 18.1875 C 103.726562 18.1875 105.246094 19.714844 105.246094 21.597656 Z M 44.726562 96.480469 C 39.605469 96.898438 35.085938 92.585938 34.507812 87.597656 C 33.460938 82.234375 34.519531 80.027344 37.1875 75.417969 C 38.609375 72.246094 38.246094 72.746094 37.476562 69.136719 C 34.796875 68.394531 31.457031 69.230469 28.53125 68.949219 C 23.746094 68.839844 18.84375 69.160156 14.160156 68.015625 C 11.015625 66.535156 8.957031 63.140625 8.132812 59.847656 C 8.335938 56.828125 12.96875 54.347656 9.851562 51.273438 C 7.140625 48.601562 8.613281 45.34375 11.140625 43.214844 C 13.464844 40.074219 8.253906 36.746094 10.652344 33.523438 C 12.394531 31.089844 15.84375 29.277344 14.957031 25.753906 C 14.550781 22.214844 18.007812 19.925781 20.515625 18.117188 C 24.933594 15.90625 30.105469 16.480469 34.894531 16.367188 C 42.910156 16.621094 50.996094 16.722656 58.84375 18.578125 C 62.605469 19.292969 66.390625 19.925781 70.140625 20.695312 L 70.253906 56.425781 C 67.085938 55.972656 64.53125 58.246094 62.855469 60.695312 C 59.148438 65.707031 55.320312 68.476562 52.664062 74.046875 C 50.179688 77.796875 49.65625 78.878906 48.207031 83.414062 C 46.144531 88.214844 46.605469 90.332031 46.054688 95.457031 C 46.054688 95.457031 44.253906 96.492188 44.726562 96.476562 Z M 44.726562 96.480469 "/>
</g>
</g>
</svg>
