<?xml version="1.0" encoding="UTF-8"?>
<svg xmlns="http://www.w3.org/2000/svg" xmlns:xlink="http://www.w3.org/1999/xlink" width="112.5pt" height="112.499997pt" viewBox="0 0 112.5 112.499997" version="1.2">
<defs>
<clipPath id="clip1">
  <path d="M 7.175781 15.917969 L 105 15.917969 L 105 96.578125 L 7.175781 96.578125 Z M 7.175781 15.917969 "/>
</clipPath>
</defs>
<g id="surface1">
<g clip-path="url(#clip1)" clip-rule="nonzero">
<path style=" stroke:none;fill-rule:nonzero;fill:rgb(100%,100%,100%);fill-opacity:1;" d="M 7.25 57.660156 C 7.25 55.78125 8.769531 54.253906 10.644531 54.253906 L 35.351562 54.253906 C 37.226562 54.253906 38.75 55.777344 38.75 57.660156 L 38.75 90.902344 C 38.75 92.785156 37.226562 94.3125 35.351562 94.3125 L 10.644531 94.3125 C 8.769531 94.3125 7.25 92.785156 7.25 90.902344 Z M 67.769531 16.019531 C 72.890625 15.601562 77.410156 19.914062 77.988281 24.902344 C 79.03125 30.265625 77.976562 32.472656 75.308594 37.082031 C 73.886719 40.25 74.25 39.753906 75.019531 43.363281 C 77.699219 44.105469 81.035156 43.269531 83.964844 43.550781 C 88.75 43.660156 93.652344 43.339844 98.332031 44.484375 C 101.480469 45.964844 103.539062 49.359375 104.363281 52.652344 C 104.160156 55.671875 99.527344 58.152344 102.644531 61.226562 C 105.355469 63.898438 103.882812 67.152344 101.355469 69.285156 C 99.03125 72.425781 104.238281 75.753906 101.839844 78.976562 C 100.101562 81.410156 96.652344 83.222656 97.539062 86.746094 C 97.945312 90.285156 94.488281 92.574219 91.980469 94.382812 C 87.5625 96.59375 82.390625 96.019531 77.601562 96.132812 C 69.582031 95.878906 61.5 95.777344 53.652344 93.921875 C 49.890625 93.207031 46.105469 92.570312 42.355469 91.804688 L 42.242188 56.074219 C 45.410156 56.527344 47.964844 54.25 49.636719 51.804688 C 53.347656 46.792969 57.175781 44.023438 59.832031 38.453125 C 62.3125 34.703125 62.839844 33.621094 64.289062 29.085938 C 66.351562 24.28125 65.886719 22.167969 66.441406 17.042969 C 66.441406 17.042969 68.242188 16.003906 67.769531 16.023438 Z M 67.769531 16.019531 "/>
</g>
</g>
</svg>
